<svg xmlns="http://www.w3.org/2000/svg" viewBox="0 0 48 48" fill="none" aria-hidden="true">
  <rect width="48" height="48" rx="10" fill="#4F6D4F"/>
  <!-- Bold S shape (ShowGroundsLive) -->
  <path d="M24 12c-4.4 0-8 3.2-8 7.2 0 2.4 1.2 4.4 3 5.6 2.4 1.6 4 3.2 4 5.4 0 2.4-2 4.2-4.4 4.2-2.8 0-5-1.8-5.6-4.2H14c.8 4 4.2 6.8 8.4 6.8 4.8 0 8.4-3.4 8.4-7.6 0-2.8-1.4-4.8-3.4-6-2.4-1.4-4.2-3.2-4.2-5.6 0-2.2 1.8-4 4.2-4 2.4 0 4.2 1.4 4.8 3.4h2.4c-.6-3.4-3.6-5.8-7.2-5.8z" fill="white" opacity="0.95"/>
</svg>
